<?xml version="1.0" encoding="UTF-8"?>
<!DOCTYPE svg PUBLIC "-//W3C//DTD SVG 1.1//EN" "http://www.w3.org/Graphics/SVG/1.1/DTD/svg11.dtd">
<!-- Creator: CorelDRAW 2019 (64 Bit) -->
<svg xmlns="http://www.w3.org/2000/svg" xml:space="preserve" width="368.695mm" height="146.926mm" version="1.1" style="shape-rendering:geometricPrecision; text-rendering:geometricPrecision; image-rendering:optimizeQuality; fill-rule:evenodd; clip-rule:evenodd"
viewBox="0 0 352.6046 140.5137"
 xmlns:xlink="http://www.w3.org/1999/xlink">
 <defs>
  <style type="text/css">
   <![CDATA[
    .fil3 {fill:#002776}
    .fil0 {fill:#006633}
    .fil1 {fill:#009B3A}
    .fil2 {fill:#FCCA09}
    .fil4 {fill:white}
    .fil5 {fill:white;fill-rule:nonzero}
   ]]>
  </style>
 </defs>
 <g id="Camada_x0020_1">
  <metadata id="CorelCorpID_0Corel-Layer"/>
  <rect class="fil0" transform="matrix(0.707107 -0.707107 0.707107 0.707107 -5.60692 70.2568)" width="107.2875" height="107.2875" rx="13.4968" ry="13.4968"/>
  <rect class="fil1" transform="matrix(0.601024 -0.601024 0.601024 0.601024 5.77448 70.2568)" width="107.2875" height="107.2875" rx="13.4968" ry="13.4968"/>
  <rect class="fil2" transform="matrix(0.51445 -0.51445 0.51445 0.51445 15.0627 70.2568)" width="107.2875" height="107.2875" rx="13.4968" ry="13.4968"/>
  <rect class="fil3" transform="matrix(0.368676 -0.368676 0.368676 0.368676 30.7026 70.2568)" width="107.2875" height="107.2875" rx="53.6438" ry="53.6438"/>
  <g id="_1566074477584">
   <path class="fil4" d="M57.0406 66.0752c-0.3317,1.8416 -1.6699,1.1092 -1.6342,4.0292 0.0531,4.362 0.9123,5.9837 -0.2027,10.1485 -0.2726,1.0181 -1.0522,3.4964 -1.0411,4.5242 3.4237,2.2977 3.54,-0.3238 5.2641,-4.5789 1.1628,-2.8697 0.6504,-3.9521 0.7255,-7.1358 0.9004,0.5424 1.3826,1.7154 1.7624,2.5355 1.4071,3.0384 -2.5099,6.4676 -2.1028,9.6999 1.2767,0.3472 1.8472,0.1947 3.1548,0.0567 0.6117,-1.9578 1.7559,-4.3932 2.5813,-6.3988 1.8711,-4.5463 -1.088,-3.9983 -0.7505,-6.8952 1.0704,0.4117 0.8983,0.9594 2.2123,1.5285 1.6912,0.7324 6.6151,3.9066 6.6875,4.8396 0.0665,0.8551 -2.4961,2.4835 -3.5097,3.2652l-2.8383 2.138c-0.7199,0.56 -0.4939,0.116 -0.7573,1.0821 2.3728,0.1098 18.6174,-0.1396 19.7592,-0.5601 -0.2355,-1.0755 -5.5704,-5.4953 -6.7581,-6.4752 -3.7354,-3.0819 -2.716,0.8711 -5.9603,-1.4058 -3.4044,-2.3892 -6.6438,-3.3402 -4.6356,-8.0823 1.3825,-3.2645 2.3472,-2.5228 0.322,-6.1403 -1.6446,-2.9378 -1.2664,-3.8512 -5.3866,-3.4261 -4.351,0.449 -6.3148,-0.0595 -6.5842,2.4098 -0.416,3.8143 -0.3808,1.7216 -1.8862,2.6884 -0.5336,0.3427 -0.1895,0.6942 0.2356,0.9891 0.8744,0.6066 0.7067,0.1369 1.3427,1.1637z"/>
   <path class="fil4" d="M71.257 55.1147c-5.0276,1.6568 -2.4335,8.8645 2.4043,7.2504 4.6116,-1.5387 2.4917,-8.8638 -2.4043,-7.2504z"/>
  </g>
  <path class="fil5" d="M174.734 66.4081c-2.9508,0 -5.5538,-0.6458 -7.8091,-1.9374 -2.2453,-1.2916 -3.984,-3.1097 -5.216,-5.4743 -1.232,-2.3547 -1.848,-5.0869 -1.848,-8.1866l0 -11.9918c0,-3.1098 0.616,-5.8419 1.848,-8.1966 1.232,-2.3547 2.9706,-4.1827 5.216,-5.4744 2.2553,-1.2916 4.8583,-1.9373 7.8091,-1.9373 2.9408,0 5.5439,0.6457 7.7992,1.9373 2.2453,1.2917 3.9939,3.1197 5.2259,5.4744 1.232,2.3547 1.848,5.0868 1.848,8.1966l0 11.9918c0,3.0998 -0.616,5.832 -1.848,8.1866 -1.232,2.3646 -2.9806,4.1827 -5.2259,5.4743 -2.2553,1.2916 -4.8584,1.9374 -7.7992,1.9374zm0 -5.8519c1.7387,0 3.2787,-0.3974 4.6099,-1.1823 1.3313,-0.7849 2.3547,-1.8977 3.08,-3.3482 0.7352,-1.4406 1.0928,-3.1097 1.0928,-5.0173l0 -12.3992c0,-1.8976 -0.3576,-3.5767 -1.0928,-5.0173 -0.7253,-1.4506 -1.7486,-2.5633 -3.08,-3.3482 -1.3313,-0.7849 -2.8713,-1.1823 -4.6099,-1.1823 -1.7486,0 -3.2885,0.3974 -4.6199,1.1823 -1.3313,0.7849 -2.3547,1.8976 -3.0799,3.3482 -0.7352,1.4406 -1.0929,3.1196 -1.0929,5.0173l0 12.3992c0,1.9076 0.3577,3.5767 1.0929,5.0173 0.7252,1.4505 1.7485,2.5633 3.0799,3.3482 1.3313,0.7849 2.8713,1.1823 4.6199,1.1823z"/>
  <path id="1" class="fil5" d="M205.3273 60.4668l11.4652 0c3.0104,0 5.2061,-0.5663 6.5772,-1.7188 1.381,-1.1426 2.0665,-2.7521 2.0665,-4.8286l0 -0.0894c0,-1.4306 -0.2484,-2.6626 -0.7352,-3.6959 -0.4967,-1.0234 -1.2816,-1.8181 -2.3447,-2.3745 -1.0729,-0.5465 -2.4341,-0.8247 -4.1033,-0.8247l-12.9257 0 0 -5.355 12.9257 0c2.1858,0 3.8449,-0.5166 4.9578,-1.5399 1.1227,-1.0333 1.679,-2.5534 1.679,-4.5703l0 0c0,-2.1162 -0.6258,-3.6959 -1.8678,-4.7491 -1.2419,-1.0432 -3.0998,-1.5698 -5.5836,-1.5698l-12.111 0 0 -5.504 13.1841 0c2.7321,0 5.0272,0.4669 6.8652,1.4009 1.848,0.9339 3.229,2.2453 4.1429,3.9542 0.9041,1.7089 1.3612,3.7456 1.3612,6.1201l0 0c0,1.4505 -0.2782,2.8117 -0.8446,4.0834 -0.5563,1.2718 -1.4207,2.3547 -2.5732,3.2588 -1.1525,0.904 -2.5832,1.5101 -4.292,1.8181 1.7088,0.2583 3.1793,0.8644 4.4212,1.8181 1.2419,0.9637 2.1957,2.1659 2.8515,3.5966 0.6656,1.4406 0.9935,2.9904 0.9935,4.6596l0 0.0894c0,2.2851 -0.5067,4.302 -1.52,6.0506 -1.0035,1.7486 -2.454,3.0998 -4.3318,4.0436 -1.8777,0.9538 -4.0734,1.4307 -6.5771,1.4307l-13.6808 0 0 -5.5041zm-3.4972 -36.8199l5.9114 0 0 42.3241 -5.9114 0 0 -42.3241z"/>
  <path id="2" class="fil5" d="M246.114 42.4244l14.436 0c1.1326,0 2.1261,-0.2683 3.0004,-0.8146 0.8743,-0.5465 1.5499,-1.3115 2.0268,-2.315 0.4669,-1.0034 0.7054,-2.146 0.7054,-3.4475l0 0c0,-1.3015 -0.2385,-2.454 -0.7054,-3.4476 -0.4769,-1.0034 -1.1525,-1.7784 -2.0169,-2.3149 -0.8544,-0.5465 -1.8679,-0.8147 -3.0103,-0.8147l-14.436 0 0 -5.6531 14.2074 0c2.4441,0 4.59,0.5067 6.448,1.5201 1.848,1.0034 3.2885,2.4341 4.302,4.2919 1.0233,1.848 1.53,3.9939 1.53,6.4182l0 0c0,2.4242 -0.5166,4.5602 -1.5399,6.4181 -1.0333,1.848 -2.4739,3.2786 -4.3218,4.292 -1.8579,1.0034 -3.994,1.5101 -6.4182,1.5101l-14.2074 0 0 -5.6432zm-2.5931 -18.8074l5.9413 0 0 42.3539 -5.9413 0 0 -42.3539zm14.118 23.1391l5.9114 -1.3313 10.8294 20.546 -7.0441 0 -9.6968 -19.2148z"/>
  <path id="3" class="fil5" d="M295.6737 23.6468l5.057 0 15.6082 42.3241 -6.4082 0 -11.7335 -34.1474 -11.7236 34.1474 -6.4082 0 15.6083 -42.3241zm-8.4152 27.3914l22.2649 0 0 5.6433 -22.2649 0 0 -5.6433z"/>
  <path id="4" class="fil5" d="M336.3413 66.4081c-2.0368,0 -3.9742,-0.1987 -5.7923,-0.5862 -1.8281,-0.3875 -3.527,-0.9637 -5.1166,-1.7387 -1.5797,-0.7849 -3.0601,-1.7486 -4.4311,-2.9111l0 0 3.6959 -4.5404 0 0c1.6096,1.3909 3.388,2.4441 5.3253,3.1395 1.9374,0.6955 4.0437,1.0432 6.3189,1.0432 3.0601,0 5.4346,-0.5663 7.1235,-1.6989 1.689,-1.1326 2.5335,-2.7422 2.5335,-4.8186l0 -0.0298c0,-1.4704 -0.3776,-2.6427 -1.1426,-3.5071 -0.7749,-0.8645 -1.7586,-1.5002 -2.9706,-1.9175 -1.2121,-0.4174 -2.7819,-0.8048 -4.6994,-1.1525 -0.0596,-0.0199 -0.1291,-0.0298 -0.1888,-0.0298 -0.0695,0 -0.1391,-0.0099 -0.1986,-0.0298l-0.4272 -0.0795c-2.8415,-0.4868 -5.1465,-1.0432 -6.915,-1.6492 -1.7784,-0.616 -3.2985,-1.7287 -4.5603,-3.3481 -1.2617,-1.6195 -1.8877,-3.9244 -1.8877,-6.915l0 -0.0298c0,-2.613 0.5862,-4.8484 1.7586,-6.7063 1.1723,-1.8479 2.8912,-3.2686 5.1365,-4.2324 2.2553,-0.9737 4.9577,-1.4605 8.127,-1.4605 1.5101,0 3.0004,0.1689 4.4608,0.4967 1.4704,0.3278 2.9111,0.8246 4.3418,1.4704 1.4207,0.6458 2.8215,1.4704 4.2025,2.464l0 0 -3.378 4.7093 0 0c-1.6095,-1.1823 -3.2091,-2.0666 -4.8186,-2.6627 -1.5995,-0.5862 -3.1991,-0.8842 -4.8086,-0.8842 -2.8912,0 -5.1465,0.5763 -6.7461,1.7288 -1.5996,1.1524 -2.3944,2.7918 -2.3944,4.9079l0 0.0298c0,1.4505 0.4074,2.5931 1.232,3.4277 0.8247,0.8345 1.8579,1.4505 3.0899,1.8479 1.232,0.3975 2.9408,0.8147 5.1365,1.2419 0.0795,0.0199 0.149,0.0298 0.2185,0.0398 0.0696,0.0099 0.1392,0.0297 0.2186,0.0496 0.0994,0.0199 0.1987,0.0398 0.3179,0.0596 0.1193,0.0099 0.2186,0.0298 0.318,0.0497 2.5632,0.5266 4.6994,1.1525 6.4181,1.8678 1.7188,0.7154 3.1594,1.8778 4.3118,3.4774 1.1525,1.5995 1.7288,3.7853 1.7288,6.5671l0 0.0497c0,2.5831 -0.606,4.7888 -1.8281,6.6268 -1.232,1.838 -3.0005,3.229 -5.3153,4.1927 -2.3249,0.9636 -5.1167,1.4406 -8.3953,1.4406z"/>
  <path class="fil5" d="M164.2226 115.1227l11.4652 0c3.0104,0 5.2061,-0.5663 6.5772,-1.7188 1.381,-1.1426 2.0665,-2.7521 2.0665,-4.8286l0 -0.0894c0,-1.4306 -0.2484,-2.6626 -0.7352,-3.6959 -0.4967,-1.0234 -1.2816,-1.8181 -2.3447,-2.3745 -1.0729,-0.5465 -2.4341,-0.8247 -4.1033,-0.8247l-12.9257 0 0 -5.355 12.9257 0c2.1858,0 3.8449,-0.5166 4.9578,-1.5399 1.1227,-1.0333 1.679,-2.5534 1.679,-4.5703l0 0c0,-2.1162 -0.6258,-3.6959 -1.8678,-4.7491 -1.2419,-1.0432 -3.0998,-1.5698 -5.5836,-1.5698l-12.111 0 0 -5.504 13.1841 0c2.7321,0 5.0272,0.4669 6.8652,1.4009 1.848,0.9339 3.229,2.2453 4.1429,3.9542 0.9041,1.7089 1.3612,3.7456 1.3612,6.1201l0 0c0,1.4505 -0.2782,2.8117 -0.8446,4.0834 -0.5563,1.2718 -1.4207,2.3547 -2.5732,3.2588 -1.1525,0.904 -2.5832,1.5101 -4.292,1.8181 1.7088,0.2583 3.1793,0.8644 4.4212,1.8181 1.2419,0.9637 2.1957,2.1659 2.8515,3.5966 0.6656,1.4406 0.9935,2.9904 0.9935,4.6596l0 0.0894c0,2.2851 -0.5067,4.302 -1.52,6.0506 -1.0035,1.7486 -2.454,3.0998 -4.3318,4.0436 -1.8777,0.9538 -4.0734,1.4307 -6.5771,1.4307l-13.6808 0 0 -5.5041zm-3.4972 -36.8199l5.9114 0 0 42.3241 -5.9114 0 0 -42.3241z"/>
  <path id="1" class="fil5" d="M201.7976 97.0803l14.436 0c1.1326,0 2.1261,-0.2683 3.0004,-0.8146 0.8743,-0.5465 1.5499,-1.3115 2.0268,-2.315 0.4669,-1.0034 0.7054,-2.146 0.7054,-3.4475l0 0c0,-1.3015 -0.2385,-2.454 -0.7054,-3.4476 -0.4769,-1.0034 -1.1525,-1.7784 -2.0169,-2.3149 -0.8544,-0.5465 -1.8679,-0.8147 -3.0103,-0.8147l-14.436 0 0 -5.6531 14.2074 0c2.4441,0 4.59,0.5067 6.448,1.5201 1.848,1.0034 3.2885,2.4341 4.302,4.2919 1.0233,1.848 1.53,3.9939 1.53,6.4182l0 0c0,2.4242 -0.5166,4.5602 -1.5399,6.4181 -1.0333,1.848 -2.4739,3.2786 -4.3218,4.292 -1.8579,1.0034 -3.994,1.5101 -6.4182,1.5101l-14.2074 0 0 -5.6432zm-2.5931 -18.8074l5.9413 0 0 42.3539 -5.9413 0 0 -42.3539zm14.118 23.1391l5.9114 -1.3313 10.8294 20.546 -7.0441 0 -9.6968 -19.2148z"/>
  <path id="2" class="fil5" d="M248.1455 78.3028l5.057 0 15.6082 42.3241 -6.4082 0 -11.7335 -34.1474 -11.7236 34.1474 -6.4082 0 15.6083 -42.3241zm-8.4152 27.3914l22.2649 0 0 5.6433 -22.2649 0 0 -5.6433z"/>
  <path id="3" class="fil5" d="M285.6013 121.064c-2.0368,0 -3.9742,-0.1987 -5.7923,-0.5862 -1.8281,-0.3875 -3.527,-0.9637 -5.1166,-1.7387 -1.5797,-0.7849 -3.0601,-1.7486 -4.4311,-2.9111l0 0 3.6959 -4.5404 0 0c1.6096,1.3909 3.388,2.4441 5.3253,3.1395 1.9374,0.6955 4.0437,1.0432 6.3189,1.0432 3.0601,0 5.4346,-0.5663 7.1235,-1.6989 1.689,-1.1326 2.5335,-2.7422 2.5335,-4.8186l0 -0.0298c0,-1.4704 -0.3776,-2.6427 -1.1426,-3.5071 -0.7749,-0.8645 -1.7586,-1.5002 -2.9706,-1.9175 -1.2121,-0.4174 -2.7819,-0.8048 -4.6994,-1.1525 -0.0596,-0.0199 -0.1291,-0.0298 -0.1888,-0.0298 -0.0695,0 -0.1391,-0.0099 -0.1986,-0.0298l-0.4272 -0.0795c-2.8415,-0.4868 -5.1465,-1.0432 -6.915,-1.6492 -1.7784,-0.616 -3.2985,-1.7287 -4.5603,-3.3481 -1.2617,-1.6195 -1.8877,-3.9244 -1.8877,-6.915l0 -0.0298c0,-2.613 0.5862,-4.8484 1.7586,-6.7063 1.1723,-1.8479 2.8912,-3.2686 5.1365,-4.2324 2.2553,-0.9737 4.9577,-1.4605 8.127,-1.4605 1.5101,0 3.0004,0.1689 4.4608,0.4967 1.4704,0.3278 2.9111,0.8246 4.3418,1.4704 1.4207,0.6458 2.8215,1.4704 4.2025,2.464l0 0 -3.378 4.7093 0 0c-1.6095,-1.1823 -3.2091,-2.0666 -4.8186,-2.6627 -1.5995,-0.5862 -3.1991,-0.8842 -4.8086,-0.8842 -2.8912,0 -5.1465,0.5763 -6.7461,1.7288 -1.5996,1.1524 -2.3944,2.7918 -2.3944,4.9079l0 0.0298c0,1.4505 0.4074,2.5931 1.232,3.4277 0.8247,0.8345 1.8579,1.4505 3.0899,1.8479 1.232,0.3975 2.9408,0.8147 5.1365,1.2419 0.0795,0.0199 0.149,0.0298 0.2185,0.0398 0.0696,0.0099 0.1392,0.0297 0.2186,0.0496 0.0994,0.0199 0.1987,0.0398 0.3179,0.0596 0.1193,0.0099 0.2186,0.0298 0.318,0.0497 2.5632,0.5266 4.6994,1.1525 6.4181,1.8678 1.7188,0.7154 3.1594,1.8778 4.3118,3.4774 1.1525,1.5995 1.7288,3.7853 1.7288,6.5671l0 0.0497c0,2.5831 -0.606,4.7888 -1.8281,6.6268 -1.232,1.838 -3.0005,3.229 -5.3153,4.1927 -2.3249,0.9636 -5.1167,1.4406 -8.3953,1.4406z"/>
  <polygon id="4" class="fil5" points="314.9401,120.6268 308.9988,120.6268 308.9988,78.3028 314.9401,78.3028 "/>
  <path id="5" class="fil5" d="M325.4119 78.3028l5.9413 0 0 42.3241 -5.9413 0 0 -42.3241zm2.9706 36.6809l24.2221 0 0 5.6432 -24.2221 0 0 -5.6432z"/>
 </g>
</svg>
