<?xml version="1.0" encoding="UTF-8"?>
<!DOCTYPE svg PUBLIC "-//W3C//DTD SVG 1.1//EN" "http://www.w3.org/Graphics/SVG/1.1/DTD/svg11.dtd">
<!-- Creator: CorelDRAW 2019 (64 Bit) -->
<svg xmlns="http://www.w3.org/2000/svg" xml:space="preserve" width="19.2562mm" height="19.2564mm" version="1.1" style="shape-rendering:geometricPrecision; text-rendering:geometricPrecision; image-rendering:optimizeQuality; fill-rule:evenodd; clip-rule:evenodd"
viewBox="0 0 0.1348 0.1348"
 xmlns:xlink="http://www.w3.org/1999/xlink">
 <defs>
  <style type="text/css">
   <![CDATA[
    .fil1 {fill:white}
    .fil0 {fill:white;fill-rule:nonzero}
   ]]>
  </style>
 </defs>
 <g id="Camada_x0020_1">
  <metadata id="CorelCorpID_0Corel-Layer"/>
  <path class="fil0" d="M0.0674 0.0072c-0.0332,0 -0.0601,0.027 -0.0601,0.0601 0,0.0332 0.027,0.0601 0.0601,0.0601 0.0332,0 0.0601,-0.027 0.0601,-0.0601 0,-0.0332 -0.027,-0.0601 -0.0601,-0.0601zm0 0.1275c-0.0372,0 -0.0674,-0.0302 -0.0674,-0.0674 0,-0.0372 0.0302,-0.0674 0.0674,-0.0674 0.0372,0 0.0674,0.0302 0.0674,0.0674 0,0.0372 -0.0302,0.0674 -0.0674,0.0674z"/>
  <path class="fil1" d="M0.0568 0.0677l0 0.0391c0,0.0006 0.0005,0.001 0.001,0.001l0.0145 0c0.0006,0 0.001,-0.0005 0.001,-0.001l0 -0.0397 0.0105 0c0.0005,0 0.001,-0.0004 0.001,-0.0009l0.001 -0.012c0,-0.0006 -0.0004,-0.0011 -0.001,-0.0011l-0.0115 0 0 -0.0085c0,-0.002 0.0016,-0.0036 0.0036,-0.0036l0.0081 0c0.0006,0 0.001,-0.0005 0.001,-0.001l0 -0.012c0,-0.0006 -0.0005,-0.001 -0.001,-0.001l-0.0137 0c-0.008,0 -0.0145,0.0065 -0.0145,0.0145l0 0.0115 -0.0073 0c-0.0006,0 -0.001,0.0005 -0.001,0.001l0 0.012c0,0.0006 0.0005,0.001 0.001,0.001l0.0073 0 0 0.0006z"/>
 </g>
</svg>
