<?xml version="1.0" encoding="UTF-8"?>
<!DOCTYPE svg PUBLIC "-//W3C//DTD SVG 1.1//EN" "http://www.w3.org/Graphics/SVG/1.1/DTD/svg11.dtd">
<!-- Creator: CorelDRAW 2019 (64 Bit) -->
<svg xmlns="http://www.w3.org/2000/svg" xml:space="preserve" width="19.2238mm" height="19.2236mm" version="1.1" style="shape-rendering:geometricPrecision; text-rendering:geometricPrecision; image-rendering:optimizeQuality; fill-rule:evenodd; clip-rule:evenodd"
viewBox="0 0 0.1343 0.1343"
 xmlns:xlink="http://www.w3.org/1999/xlink">
 <defs>
  <style type="text/css">
   <![CDATA[
    .fil0 {fill:white;fill-rule:nonzero}
   ]]>
  </style>
 </defs>
 <g id="Camada_x0020_1">
  <metadata id="CorelCorpID_0Corel-Layer"/>
  <path class="fil0" d="M0.0672 0.0072c-0.033,0 -0.0599,0.0269 -0.0599,0.0599 0,0.033 0.0269,0.0599 0.0599,0.0599 0.033,0 0.0599,-0.0269 0.0599,-0.0599 0,-0.033 -0.0269,-0.0599 -0.0599,-0.0599zm0 0.1271c-0.037,0 -0.0672,-0.0301 -0.0672,-0.0672 0,-0.037 0.0301,-0.0672 0.0672,-0.0672 0.037,0 0.0672,0.0301 0.0672,0.0672 0,0.037 -0.0301,0.0672 -0.0672,0.0672z"/>
  <path class="fil0" d="M0.0363 0.0985l0.0129 0c0.0006,0 0.0011,-0.0005 0.0011,-0.0011l0 -0.0434c0,-0.0006 -0.0005,-0.0011 -0.0011,-0.0011l-0.0129 0c-0.0006,0 -0.0011,0.0005 -0.0011,0.0011l0 0.0434c0,0.0006 0.0005,0.0011 0.0011,0.0011zm0.0688 -0.0262l0 0.0251c0,0.0006 -0.0005,0.0011 -0.0011,0.0011l-0.0129 0c-0.0006,0 -0.0011,-0.0005 -0.0011,-0.0011l0 -0.0233c0,-0.0061 -0.0022,-0.0103 -0.0077,-0.0103 -0.0042,0 -0.0067,0.0028 -0.0078,0.0056 -0.0004,0.001 -0.0005,0.0023 -0.0005,0.0037l0 0.0244c0,0.0006 -0.0005,0.0011 -0.0011,0.0011l-0.0129 0c-0.0006,0 -0.0011,-0.0005 -0.0011,-0.0011 0,-0.0062 0.0002,-0.0363 0,-0.0434 -0,-0.0006 0.0005,-0.0011 0.0011,-0.0011l0.0129 0c0.0006,0 0.0011,0.0005 0.0011,0.0011l0 0.0054c-0,0 -0.0001,0.0001 -0.0001,0.0001l0.0001 0 0 -0.0001c0.002,-0.0031 0.0056,-0.0075 0.0137,-0.0075 0.01,0 0.0175,0.0065 0.0175,0.0206l0 0z"/>
  <path class="fil0" d="M0.0504 0.0388c0,0.0045 -0.0036,0.0081 -0.0081,0.0081 -0.0045,0 -0.0081,-0.0036 -0.0081,-0.0081 0,-0.0045 0.0036,-0.0081 0.0081,-0.0081 0.0045,0 0.0081,0.0036 0.0081,0.0081z"/>
 </g>
</svg>
