<?xml version="1.0" encoding="UTF-8"?>
<!DOCTYPE svg PUBLIC "-//W3C//DTD SVG 1.1//EN" "http://www.w3.org/Graphics/SVG/1.1/DTD/svg11.dtd">
<!-- Creator: CorelDRAW 2019 (64 Bit) -->
<svg xmlns="http://www.w3.org/2000/svg" xml:space="preserve" width="19.2567mm" height="19.2564mm" version="1.1" style="shape-rendering:geometricPrecision; text-rendering:geometricPrecision; image-rendering:optimizeQuality; fill-rule:evenodd; clip-rule:evenodd"
viewBox="0 0 0.1372 0.1372"
 xmlns:xlink="http://www.w3.org/1999/xlink">
 <defs>
  <style type="text/css">
   <![CDATA[
    .fil1 {fill:white}
    .fil0 {fill:white;fill-rule:nonzero}
   ]]>
  </style>
 </defs>
 <g id="Camada_x0020_1">
  <metadata id="CorelCorpID_0Corel-Layer"/>
  <path class="fil0" d="M0.0686 0.0074c-0.0338,0 -0.0612,0.0275 -0.0612,0.0612 0,0.0338 0.0275,0.0612 0.0612,0.0612 0.0338,0 0.0612,-0.0275 0.0612,-0.0612 0,-0.0338 -0.0275,-0.0612 -0.0612,-0.0612zm0 0.1298c-0.0378,0 -0.0686,-0.0308 -0.0686,-0.0686 0,-0.0378 0.0308,-0.0686 0.0686,-0.0686 0.0378,0 0.0686,0.0308 0.0686,0.0686 0,0.0378 -0.0308,0.0686 -0.0686,0.0686z"/>
  <path class="fil0" d="M0.108 0.0436c-0.0025,0.0012 -0.0053,0.0018 -0.0081,0.0023 0.0013,-0.0002 0.0032,-0.0026 0.004,-0.0035 0.0012,-0.0015 0.0021,-0.0031 0.0027,-0.0049 0.0001,-0.0001 0.0001,-0.0003 -0,-0.0004 -0.0002,-0.0001 -0.0003,-0 -0.0004,0 -0.0031,0.0016 -0.0062,0.0028 -0.0096,0.0037 -0.0003,0.0001 -0.0005,0 -0.0007,-0.0002 -0.0003,-0.0003 -0.0005,-0.0006 -0.0008,-0.0009 -0.0014,-0.0012 -0.0029,-0.0021 -0.0046,-0.0028 -0.0022,-0.0009 -0.0047,-0.0013 -0.0071,-0.0011 -0.0024,0.0002 -0.0047,0.0008 -0.0068,0.0019 -0.0021,0.0011 -0.004,0.0026 -0.0055,0.0045 -0.0015,0.0019 -0.0027,0.0041 -0.0033,0.0065 -0.0006,0.0023 -0.0005,0.0046 -0.0002,0.0069 0,0.0004 0,0.0004 -0.0003,0.0004 -0.0132,-0.002 -0.0241,-0.0067 -0.033,-0.0168 -0.0004,-0.0004 -0.0006,-0.0004 -0.0009,0 -0.0039,0.0058 -0.002,0.0152 0.0028,0.0197 0.0006,0.0006 0.0013,0.0012 0.002,0.0018 -0.0003,0.0001 -0.0035,-0.0003 -0.0064,-0.0018 -0.0004,-0.0002 -0.0006,-0.0001 -0.0006,0.0003 -0,0.0006 0,0.0012 0.0001,0.0019 0.0007,0.0059 0.0048,0.0113 0.0104,0.0135 0.0007,0.0003 0.0014,0.0005 0.0021,0.0006 -0.0013,0.0003 -0.0026,0.0005 -0.0062,0.0002 -0.0005,-0.0001 -0.0006,0.0001 -0.0005,0.0006 0.0027,0.0075 0.0087,0.0097 0.0131,0.011 0.0006,0.0001 0.0012,0.0001 0.0018,0.0002 -0,0.0001 -0.0001,0.0001 -0.0001,0.0001 -0.0015,0.0022 -0.0066,0.0039 -0.0089,0.0047 -0.0043,0.0015 -0.009,0.0022 -0.0136,0.0017 -0.0007,-0.0001 -0.0009,-0.0001 -0.0011,0 -0.0002,0.0001 -0,0.0003 0.0002,0.0005 0.0009,0.0006 0.0019,0.0012 0.0028,0.0017 0.0029,0.0015 0.0059,0.0028 0.0091,0.0036 0.0163,0.0045 0.0347,0.0012 0.047,-0.011 0.0096,-0.0096 0.013,-0.0228 0.013,-0.036 0,-0.0005 0.0006,-0.0008 0.001,-0.0011 0.0025,-0.0019 0.0045,-0.0041 0.0064,-0.0066 0.0004,-0.0006 0.0004,-0.0011 0.0004,-0.0013 0,-0 0,-0.0001 0,-0.0001 0,-0.0002 0,-0.0001 -0.0003,0z"/>
  <path class="fil1" d="M0.0521 0.1012c0.0068,0 0.0003,0 0,0 0.0009,0 -0,0 0,0z"/>
  <path class="fil1" d="M0.0521 0.1012c-0.0001,0 -0.0013,0 0,0 0,0 -0.0002,0 0,0z"/>
  <path class="fil1" d="M0.0548 0.1013c0,-0.0001 0.0014,0 0,0 0,-0.0001 0.0002,0 0,0z"/>
  <path class="fil1" d="M0.0831 0.0358c-0.0001,0.0001 -0.0002,0.0001 -0.0003,0 0.0001,0 0.0002,0 0.0003,0z"/>
 </g>
</svg>
