<?xml version="1.0" encoding="UTF-8"?>
<!DOCTYPE svg PUBLIC "-//W3C//DTD SVG 1.1//EN" "http://www.w3.org/Graphics/SVG/1.1/DTD/svg11.dtd">
<!-- Creator: CorelDRAW 2019 (64 Bit) -->
<svg xmlns="http://www.w3.org/2000/svg" xml:space="preserve" width="19.2563mm" height="19.2564mm" version="1.1" style="shape-rendering:geometricPrecision; text-rendering:geometricPrecision; image-rendering:optimizeQuality; fill-rule:evenodd; clip-rule:evenodd"
viewBox="0 0 0.1373 0.1373"
 xmlns:xlink="http://www.w3.org/1999/xlink">
 <defs>
  <style type="text/css">
   <![CDATA[
    .fil0 {fill:white;fill-rule:nonzero}
   ]]>
  </style>
 </defs>
 <g id="Camada_x0020_1">
  <metadata id="CorelCorpID_0Corel-Layer"/>
  <path class="fil0" d="M0.0686 0.0074c-0.0338,0 -0.0613,0.0275 -0.0613,0.0613 0,0.0338 0.0275,0.0613 0.0613,0.0613 0.0338,0 0.0613,-0.0275 0.0613,-0.0613 0,-0.0338 -0.0275,-0.0613 -0.0613,-0.0613zm0 0.1299c-0.0378,0 -0.0686,-0.0308 -0.0686,-0.0686 0,-0.0378 0.0308,-0.0686 0.0686,-0.0686 0.0378,0 0.0686,0.0308 0.0686,0.0686 0,0.0378 -0.0308,0.0686 -0.0686,0.0686z"/>
  <path class="fil0" d="M0.0809 0.07l-0.0182 0.01c-0.0008,0.0004 -0.0015,-0.0001 -0.0015,-0.001l0 -0.0205c0,-0.0009 0.0007,-0.0015 0.0015,-0.001l0.0184 0.0105c0.0008,0.0005 0.0007,0.0016 -0.0001,0.0021zm0.0288 -0.0118c0,-0.0097 -0.0079,-0.0176 -0.0176,-0.0176l-0.0457 0c-0.0097,0 -0.0176,0.0079 -0.0176,0.0176l0 0.0214c0,0.0097 0.0079,0.0176 0.0176,0.0176l0.0457 0c0.0097,0 0.0176,-0.0079 0.0176,-0.0176l0 -0.0214z"/>
 </g>
</svg>
